# xmcd CD database file
#
# Track frame offsets:
#	150
#	11777
#	22822
#
# Disc length: 478 seconds
#
# Revision: 0
# Processed by: cddbd v1.5.1PL0 Copyright (c) Steve Scherf et al.
# Submitted via: CDex 1.51
#
DISCID=1601dc03
DTITLE=Bryan Ferry - As Time Goes By [CD single)
DYEAR=1999
DGENRE=Jazz
TTITLE0=As Time Goes By
TTITLE1=Falling In Love Again
TTITLE2=If I Didn't Care
EXTD=YEAR: 1999
EXTT0=
EXTT1=
EXTT2=
PLAYORDER=
